<svg width="33" height="32" viewBox="0 0 33 32" fill="none" xmlns="http://www.w3.org/2000/svg">
<path d="M30.5288 20.1748L15.7285 14.71L21.1948 29.5103L24.2666 26.437L28.9136 31.085L32.1016 27.8979L27.4546 23.251L30.5288 20.1748Z" fill="white"/>
<path d="M6.9686 4.43326L5.45703 5.94482L10.9872 11.475L12.4988 9.96341L6.9686 4.43326Z" fill="white"/>
<path d="M29.0212 3.60524L23.4902 9.13623L25.002 10.648L30.533 5.11704L29.0212 3.60524Z" fill="white"/>
<path d="M10.2107 22.4148L4.67969 27.9458L6.19148 29.4576L11.7225 23.9266L10.2107 22.4148Z" fill="white"/>
<path d="M8.73506 16.0249H0.914062V18.1629H8.73506V16.0249Z" fill="white"/>
<path d="M19.0775 0H16.9395V7.821H19.0775V0Z" fill="white"/>
</svg>
